<svg xmlns="http://www.w3.org/2000/svg" viewBox="17.977 138.152 1500.275 587.307" role="img" aria-labelledby="logoTitle">
  <title id="logoTitle">Aqua Muse</title>
  <g transform="matrix(1 0 0 -1 0 863.25)">
  <path d="M 0 0 C 0.002 -13.063 11.604 -10.341 14.873 -12.591 C 15.552 -13.058 15.326 -16.218 14.492 -16.216 L -30.275 -16.085 C -30.654 -14.042 -30.266 -12.419 -29.656 -12.03 C -28.967 -11.59 -27.378 -11.511 -26.381 -11.429 C -19.592 -10.865 -15.193 -6.636 -15.211 0.565 L -15.682 183.931 L -90.736 -15.633 C -93.235 -16.926 -98.02 -17.207 -100.376 -15.67 L -183.616 182.21 L -183.893 0.978 C -183.904 -6.422 -179.552 -10.769 -172.303 -11.286 C -171.308 -11.357 -169.826 -11.685 -169.173 -12.014 C -168.277 -12.465 -168.017 -15.435 -168.99 -16.401 L -208.174 -16.189 C -208.788 -14.886 -208.701 -13.332 -208.526 -12.701 C -208.098 -11.158 -192.029 -11.702 -192.03 -1.71 L -192.049 191.328 C -192.049 201.006 -207.155 200.649 -208.238 201.615 C -208.878 202.187 -208.774 204.44 -208.202 205.578 L -176.993 205.512 L -145.688 131.093 L -92.558 3.25 L -16.044 205.467 L 14.902 205.518 C 15.753 204.606 15.721 202.117 14.98 201.651 C 11.977 199.765 -0.025 201.79 -0.023 189.011 Z" transform="matrix(1 0 0 1 1031.0914 335.3143)" fill="#1d1d1b"/>
  <path d="M 0 0 L 0.288 -143.927 C 0.303 -151.466 4.148 -156.509 11.581 -156.828 L 14.758 -157.566 C 15.922 -157.836 16.119 -161.759 15.109 -161.768 L -13.85 -162.034 L -14.167 -128.032 C -22.737 -146.948 -41.225 -158.263 -62.235 -159.752 C -77.44 -160.829 -92.545 -155.307 -100.99 -142.422 C -106.733 -133.662 -109.053 -123.228 -109.108 -112.483 L -109.595 -16.057 C -109.63 -9.136 -113.963 -4.999 -120.965 -4.816 C -122.151 -4.785 -124.241 -4.625 -124.888 -3.966 C -125.536 -3.306 -125.148 -0.045 -124.191 -0.043 L -95.719 0.013 L -95.647 -104.693 C -95.633 -125.287 -89.34 -144.727 -68.713 -148.35 C -36.479 -154.011 -14.514 -123.068 -14.344 -94.524 L -13.878 -16.016 C -13.803 -3.442 -27.803 -4.884 -28.569 -3.957 C -29.331 -3.035 -29.242 -0.193 -27.598 0.143 Z" transform="matrix(1 0 0 1 1191.1547 480.8987)" fill="#1d1d1b"/>
  <path d="M 0 0 L 0.172 -144.222 C 0.181 -151.53 4.958 -156.07 12.108 -156.234 C 13.196 -156.259 14.658 -156.5 15.415 -156.872 C 16.364 -157.338 17.018 -159.014 16.422 -161.648 L -13.725 -161.884 L -14.013 -127.576 C -25.072 -149.308 -46.915 -160.916 -70.92 -159.181 C -98.514 -157.187 -109.999 -132.948 -110.03 -106.608 L -110.136 -16.943 C -110.14 -13.307 -110.848 -9.994 -113.22 -7.85 C -117.567 -3.92 -124.889 -5.251 -126.106 -3.842 C -126.735 -3.114 -126.332 0.184 -125.338 0.181 L -96.556 0.106 L -96.243 -105.579 C -96.185 -125.076 -90.59 -143.437 -71.386 -147.64 C -55.146 -151.194 -38.058 -145.815 -27.166 -132.76 C -18.427 -122.287 -13.333 -108.983 -13.317 -95.029 L -13.225 -16.508 C -13.217 -9.177 -18.304 -4.948 -25.451 -4.907 C -26.477 -4.901 -28.193 -4.656 -28.949 -4.335 C -29.977 -3.898 -30.324 -1.615 -29.376 0.021 Z" transform="matrix(1 0 0 1 551.5353 480.7091)" fill="#1d1d1b"/>
  <path d="M 0 0 C -0.031 -0.966 -2.381 -1.009 -2.743 -0.669 C -4.613 1.093 -6.677 24.127 -32.842 28.355 C -47.988 30.803 -63.531 27.498 -74.206 16.335 C -80.401 9.858 -83.493 0.434 -80.412 -8.037 C -71.521 -32.479 -5.262 -25.112 12.779 -54.22 C 24.82 -73.647 19.627 -98.268 1.184 -112.299 C -17.995 -126.891 -44.123 -129.924 -66.894 -121.567 C -77.457 -117.691 -85.882 -111.018 -94.362 -104.039 L -94.133 -82.903 C -94.122 -81.864 -92.342 -81.882 -91.777 -82.016 C -89.18 -82.633 -86.69 -107.521 -60.402 -113.99 C -29.662 -121.555 6.945 -105.009 4.876 -78.919 C 4.226 -70.722 -1.039 -62.594 -8.852 -57.784 C -36.473 -40.777 -83.149 -46.19 -92.78 -14.784 C -99.396 6.794 -87.426 26.81 -65.261 34.221 C -42.292 41.901 -17.328 36.372 0.639 20.055 Z" transform="matrix(1 0 0 1 1324.4773 444.2706)" fill="#1d1d1b"/>
  <path d="M 0 0 C -1.047 -0.056 -1.405 -1.04 -1.499 -1.811 C -3.206 2.509 -6.16 5.654 -6.816 11.34 C -4.046 8.023 -2.166 4.17 0 0" transform="matrix(1 0 0 1 682.8409 701.7582)" fill="#1d1d1b"/>
  <path d="M 0 0 C -3.645 -12.508 -10.271 -23.302 -20.26 -31.491 C -33.997 -42.753 -53.33 -45.165 -68.714 -35.915 C -98.294 -18.13 -102.246 31.468 -92.923 64.771 C -88.496 80.588 -78.846 94.595 -64.267 102.318 C -48.451 110.696 -29.028 105.88 -16.58 93.852 C 6.799 71.261 8.784 30.145 0 0 M 33.549 -105.096 L 29.587 -104.447 C 23.35 -103.425 18.963 -99.671 18.96 -93.14 L 18.866 112.807 C 15.471 113.914 12.677 113.691 10.043 112.579 L 6.284 84.048 C -2.784 95.88 -12.837 105.078 -25.964 110.009 C -50.748 119.32 -76.798 112.59 -93.772 92.46 C -123.377 57.35 -121.22 -1.608 -87.974 -33.731 C -73.606 -47.099 -54.714 -52.528 -35.55 -47.545 C -18.016 -42.985 -4.372 -31.382 5.163 -15.618 L 4.874 -92.469 C 4.823 -105.945 -8.562 -103.745 -9.671 -105.694 C -10.027 -106.32 -10.16 -108.69 -9.436 -109.856 L 33.986 -109.644 C 35.01 -109.639 34.699 -105.285 33.549 -105.096" transform="matrix(1 0 0 1 377.6046 367.6642)" fill="#1d1d1b"/>
  <path d="M 0 0 L 45.498 113.897 L 92.506 0.135 Z M 158.492 -76.805 C 146.415 -75.499 137.939 -67.855 133.315 -56.798 L 113.426 -9.239 L 52.068 139.13 C 51.526 140.44 48.967 140.198 48.17 139.877 C 47.048 139.424 46.998 138.463 46.26 136.617 L -32.238 -59.773 C -37.529 -73.01 -46.225 -75.593 -59.785 -77.299 C -60.231 -79.249 -60.104 -80.943 -59.287 -82.275 L -12.676 -82.277 C -9.792 -74.252 -20.794 -77.872 -24.776 -72.65 C -26.713 -70.109 -26.271 -66.611 -25.134 -63.727 L -2.854 -7.217 L 95.673 -7.181 L 115.256 -55.857 C 117.573 -61.615 117.104 -68.179 113.266 -72.784 C 109.196 -76.021 104.465 -76.753 99.114 -76.993 C 98.782 -78.599 98.512 -80.325 99.056 -82.315 L 160.952 -82.09 C 161.875 -77.978 159.641 -76.929 158.492 -76.805" transform="matrix(1 0 0 1 90.2082 401.0875)" fill="#1d1d1b"/>
  <path d="M 0 0 C -0.631 2.389 -0.624 3.634 1.499 1.811 C 11.716 -17.86 19.572 -38.093 24.769 -59.832 L 33.218 -95.176 C 39.178 -120.109 53.864 -140.493 75.719 -153.919 L 110.47 -171.792 C 121.541 -177.486 128.039 -186.464 128.935 -198.791 C 131.385 -232.485 116.431 -270.526 82.414 -280.444 C 86.11 -298.672 85.217 -316.922 79.761 -334.811 L 67.666 -374.473 C 56.014 -412.68 48.508 -451.161 46.327 -491.145 L 45.974 -507.195 C 43.451 -503.313 44.247 -499.283 44.135 -494.565 C 43.258 -457.531 47.23 -421.659 56.63 -385.91 L 70.668 -332.527 C 81.657 -290.734 70.241 -250.791 50.295 -213.755 C 49.837 -211.695 50.59 -211.719 52.139 -213.076 C 65.222 -229.449 74.599 -247.871 80.067 -269.077 C 109.026 -260.021 122.239 -226.239 118.861 -197.455 C 117.898 -189.25 112.761 -183.552 105.528 -180.164 C 73.601 -165.21 44.452 -149.259 31.273 -115.162 C 27.187 -104.588 24.881 -94.186 22.854 -82.953 C 17.698 -54.39 10.599 -26.83 0 0" transform="matrix(1 0 0 1 681.3416 699.9472)" fill="#1d1d1b"/>
  <path d="M 0 0 L -1.845 -0.68 C -3.244 1.919 -5.312 3.976 -5.703 7.137 Z" transform="matrix(1 0 0 1 733.4811 486.8715)" fill="#1d1d1b"/>
  <path d="M 0 0 C -9.959 -32.437 -44.919 -49.738 -76.17 -35.908 C -85.651 -31.712 -91.57 -21.776 -93.039 -13.622 C -95.128 -2.024 -92.05 7.908 -84.932 16.282 C -66.647 37.793 -23.574 42.963 4.39 45.479 C 5.634 29.075 4.528 14.747 0 0 M 35.782 -40.356 C 33.673 -36.196 27.336 -42.532 23.038 -39.567 C 21.314 -38.378 19.297 -35.707 19.285 -32.595 L 18.977 47.005 C 18.861 76.946 4.262 105.082 -25.489 112.633 C -45.684 117.76 -66.996 114.373 -84.691 103.799 C -91.222 99.896 -96.667 94.612 -98.594 87.401 C -100.45 80.459 -95.636 74.593 -89.416 73.803 C -82.951 72.982 -79.06 77.884 -77.742 84.264 C -75.139 96.86 -66.11 104.521 -53.694 106.481 C -37.451 109.046 -20.668 105.096 -9.92 92.228 C -0.726 81.222 2.997 67.469 4.057 53.298 C -28.542 50.306 -69.04 45.58 -94.063 25.379 C -111.199 11.546 -115.525 -12.041 -103.621 -30.931 C -87.131 -57.098 -41.143 -56.144 -12.912 -34.536 C -5.185 -28.623 -0.239 -21.201 5.168 -13.476 L 5.229 -31.689 C 5.248 -37.081 7.247 -42.7 11.882 -45.556 C 22.009 -51.796 38.361 -45.447 35.782 -40.356" transform="matrix(1 0 0 1 697.2884 368.4347)" fill="#1d1d1b"/>
  <path d="M 0 0 C 1.103 23.19 10.465 44.648 29.42 58.172 C 52.767 74.828 83.36 67.796 98.211 44.024 C 106.419 30.886 110.242 16.035 110.682 0.018 Z M 80.787 71.567 C 53.457 82.203 24.198 73.468 4.949 51.626 C -17.997 25.591 -22.415 -11.421 -8.295 -43.126 C 8.419 -80.655 51.962 -97.11 89.069 -79.338 C 101.669 -73.303 111.366 -63.911 119.623 -52.814 L 110.371 -48.287 C 96.567 -71.942 67.615 -83.522 41.281 -74.514 C 15.791 -65.795 1.442 -38.069 0.097 -10.736 L 124.328 -10.743 C 124.761 22.516 113.009 59.027 80.787 71.567" transform="matrix(1 0 0 1 1381.491 405.1167)" fill="#1d1d1b"/>
  <path d="M 0 0 L -11.485 -17.588 L 0.529 -35.651 C -0.853 -36.43 -4.173 -36.677 -5.165 -35.198 L -15.103 -20.382 C -17.507 -19.84 -19.573 -19.786 -22.344 -20.137 L -22.658 -35.294 C -22.676 -36.144 -26.554 -36.35 -26.751 -35.52 L -27.099 -20.112 C -29.533 -19.785 -31.68 -19.801 -34.062 -20.402 L -44.436 -35.656 C -45.654 -36.49 -48.318 -36.338 -49.559 -35.667 L -37.759 -17.388 L -49.092 0.25 C -47.496 0.938 -44.435 1.126 -43.5 -0.282 L -33.935 -14.695 C -32.845 -16.338 -28.77 -15.802 -27.207 -15.093 L -26.962 0.404 C -25.151 0.665 -23.965 0.634 -22.412 0.403 L -22.222 -15.056 C -20.341 -15.778 -16.174 -16.385 -15.052 -14.736 L -4.961 0.092 C -4.474 0.807 -1.992 1.206 0 0" transform="matrix(1 0 0 1 1079.2878 194.6259)" fill="#1d1d1b"/>
  <path d="M 0 0 C -0.005 -1.462 -4.214 -1.248 -4.231 -0.346 L -4.718 25.936 L -18.414 1.964 L -32.935 24.903 L -33.378 -0.846 L -37.948 -0.831 L -37.948 35.419 C -34.633 36.075 -33.248 34.778 -32.103 32.835 L -18.813 10.285 L -4.25 35.081 C -3.838 35.782 -1.294 35.813 0.125 35.234 Z" transform="matrix(1 0 0 1 272.607 159.6992)" fill="#1d1d1b"/>
  <path d="M 0 0 L 0.122 -35.886 C -1.386 -36.776 -3.75 -36.439 -4.49 -35.637 L -4.948 -8.368 L -23.876 -33.477 C -25.597 -35.76 -27.324 -37.383 -30.671 -35.739 L -30.588 -0.085 C -28.898 0.194 -27.667 0.183 -25.915 -0.092 L -25.655 -28.272 L -6.883 -3.259 C -5.408 -1.293 -4.715 0.97 0 0" transform="matrix(1 0 0 1 488.4013 195.0657)" fill="#1d1d1b"/>
  <path d="M 0 0 L -0.112 -35.015 C -0.115 -35.902 -4.342 -35.923 -4.356 -35.031 L -4.792 -7.856 L -24.803 -33.979 C -25.924 -35.442 -29.747 -36.65 -30.504 -35.231 L -30.599 0.609 C -28.682 1.003 -27.501 0.926 -26.008 0.701 L -25.74 -27.72 L -6.159 -2 C -5.206 -0.748 -4.607 0.248 -3.724 0.711 C -2.687 1.255 0.003 1.022 0 0" transform="matrix(1 0 0 1 1206.4918 194.3241)" fill="#1d1d1b"/>
  <path d="M 0 0 L -0.161 -35.63 C -0.165 -36.534 -4.372 -36.598 -4.394 -35.666 L -4.776 -20.136 L -26.136 -20.061 L -26.458 -36.22 L -31.145 -36.176 L -31.258 0.037 L -26.454 0.238 L -26.211 -15.731 L -4.662 -15.677 L -4.609 0.06 C -3.264 0.234 -2.462 0.362 0 0" transform="matrix(1 0 0 1 1339.1519 194.9411)" fill="#1d1d1b"/>
  <path d="M 0 0 C 0.771 -0.877 0.823 -2.831 0.518 -4.22 L -17.843 -4.528 L -17.795 -16.167 L 3.166 -16.333 C 3.896 -17.277 3.894 -19.11 3.394 -20.549 L -22.668 -20.563 L -22.858 15.938 L 2.57 15.959 L 2.764 11.745 L -17.799 11.76 L -17.758 0.023 Z" transform="matrix(1 0 0 1 933.7316 179.1737)" fill="#1d1d1b"/>
  <path d="M 0 0 C 0.529 -1.258 0.542 -2.586 0.253 -4.286 L -18.143 -4.317 L -17.99 -16.201 L 2.781 -16.341 C 3.265 -17.645 3.29 -18.851 3.017 -20.598 L -22.66 -20.617 L -22.89 15.889 L 2.468 15.914 L 2.465 11.618 L -18.158 11.513 L -18.198 0.092 Z" transform="matrix(1 0 0 1 1296.8988 179.215)" fill="#1d1d1b"/>
  <path d="M 0 0 C 0.648 -1.127 0.646 -2.878 0.414 -4.271 L -17.884 -4.314 L -17.905 -16.375 L 3.154 -16.452 C 3.678 -17.5 3.806 -18.962 3.462 -20.603 L -22.727 -20.66 L -22.773 15.875 L 2.155 15.765 C 3.087 15.691 3.438 12.728 2.687 11.774 L -17.836 11.517 L -17.916 0.218 Z" transform="matrix(1 0 0 1 862.7264 179.2347)" fill="#1d1d1b"/>
  <path d="M 0 0 L -13.079 -17.204 L 0.473 -34.786 C -0.534 -36.049 -4.057 -36.495 -5.422 -34.715 L -16.67 -20.05 C -19.362 -19.506 -22.01 -19.498 -24.665 -20.078 L -25.066 -35.273 C -25.426 -36.114 -29.316 -35.87 -29.592 -35.023 L -29.704 0.519 C -28.015 0.85 -26.874 0.842 -25.056 0.596 C -24.427 -4.662 -24.82 -9.346 -24.786 -14.909 C -22.741 -15.719 -18.602 -16.336 -17.033 -14.329 L -5.611 0.276 C -4.039 0.966 -2.183 1.592 0 0" transform="matrix(1 0 0 1 186.3336 194.4294)" fill="#1d1d1b"/>
  <path d="M 0 0 L -13.255 -17.85 L 0.32 -35.932 C -1.505 -36.594 -3.061 -36.297 -5.324 -36.218 L -16.329 -20.543 C -19.415 -19.929 -22.22 -20.052 -25.463 -20.271 L -25.759 -35.692 C -25.775 -36.538 -30.044 -36.289 -30.084 -35.433 L -30.225 0.181 C -28.538 0.477 -27.384 0.449 -25.609 0.205 L -25.401 -15.326 C -22.918 -16.047 -18.193 -16.914 -16.475 -14.677 L -5.196 0.012 C -3.953 0.81 -1.356 0.692 0 0" transform="matrix(1 0 0 1 989.397 194.798)" fill="#1d1d1b"/>
  <path d="M 0 0 C 3.264 0.174 4.724 3.337 4.689 5.577 C 4.596 11.493 -5.537 13.488 -13.802 8.621 C -14.567 8.16 -16.913 11.181 -16.137 11.866 C -11.015 16.388 -3.465 16.704 2.628 14.594 C 6.77 13.159 9.128 10.222 9.45 6.662 C 9.82 2.575 8.256 -0.633 4.357 -2.322 C 9.378 -4.27 10.862 -7.852 10.384 -12.317 C 9.99 -15.994 7.562 -19.313 3.249 -20.796 C -3.333 -23.057 -10.592 -22.164 -16.532 -18.123 C -17.823 -17.245 -15.972 -13.861 -14.988 -14.358 C -9.981 -17.032 -4.159 -18.579 1.238 -16.55 C 4.317 -15.392 5.862 -12.939 5.598 -10.189 C 5.293 -7.011 2.579 -4.814 -1.079 -4.837 L -9.938 -4.891 L -10.897 -0.582 Z" transform="matrix(1 0 0 1 526.4116 180.0393)" fill="#1d1d1b"/>
  <path d="M 0 0 C -2.017 -4.947 -12.898 8.172 -23.282 -2.45 C -28.141 -7.421 -28.578 -16.003 -23.71 -21.645 C -14.896 -31.859 -3.121 -22.58 -1.623 -23.15 C -0.845 -23.447 0.105 -24.621 0.044 -25.92 C -0.059 -28.103 -16.644 -36.909 -27.548 -24.491 C -33.585 -17.615 -33.529 -6.936 -27.682 -0.145 C -17.218 12.006 1.627 3.99 0 0" transform="matrix(1 0 0 1 833.0672 189.1781)" fill="#1d1d1b"/>
  <path d="M 0 0 L -0.178 -31.48 C -0.744 -32.315 -4.23 -32.133 -4.593 -31.298 L -4.722 -0.103 L -16.895 0.184 C -17.676 0.717 -17.725 3.658 -16.878 4.42 L 11.944 4.226 C 13.179 4.218 13.161 0.347 12.036 0.317 Z" transform="matrix(1 0 0 1 676.1651 190.6875)" fill="#1d1d1b"/>
  <path d="M 0 0 L 0.011 -31.351 C -1.634 -32.048 -2.954 -32.157 -4.754 -31.52 L -4.768 -0.012 L -16.817 0.059 C -17.089 1.707 -17.123 2.844 -16.736 4.585 L 12.142 4.382 C 12.993 3.983 13.121 0.967 12.198 0.108 Z" transform="matrix(1 0 0 1 424.1961 190.644)" fill="#1d1d1b"/>
  <path d="M 0 0 C 1.143 2.044 1.357 2.26 2.324 2.681 C 3.157 3.044 5.165 2.567 4.999 1.671 C 3.95 -3.999 -0.874 -5.994 -6.127 -5.582 C -10.493 -5.241 -14.668 -3.474 -14.954 1.699 C -14.989 2.328 -13.058 2.571 -12.427 2.339 C -11.318 1.931 -11.008 1.031 -9.982 -0.396 C -8.077 -3.048 -1.745 -3.119 0 0" transform="matrix(1 0 0 1 1196.8143 202.6899)" fill="#1d1d1b"/>
  <path d="M 0 0 C 3.608 9.087 2.956 17.526 3.025 27.211 L 19.465 27.154 L 19.753 0.031 Z M 29.355 -0.478 C 26.948 -0.517 25.205 0.014 24.39 0.744 L 24.363 31.854 L -1.242 32.094 L -1.948 9.684 C -2.109 4.577 -4.379 0.611 -9.285 -1.283 L -8.955 -12.464 L -4.809 -12.227 L -4.42 -4.484 L 24.746 -4.597 L 25.032 -12.361 C 26.356 -13.245 29.273 -12.946 29.456 -11.939 Z" transform="matrix(1 0 0 1 1237.7739 163.0367)" fill="#1d1d1b"/>
  <path d="M 0 0 C 4.036 5.185 3.625 18.08 3.728 27.635 L 19.451 27.701 L 19.782 0.028 Z M 24.595 0.69 L 24.515 32.051 L -0.69 32.075 L -2.079 6.38 C -2.301 2.285 -5.161 -0.138 -9.039 -1.286 L -8.888 -12.491 C -6.865 -12.783 -5.616 -12.836 -4.122 -12.04 C -4.838 -9.399 -4.954 -6.095 -3.408 -4.579 L 24.638 -4.529 C 25.538 -7.351 25.043 -9.264 25.178 -11.936 C 25.236 -13.088 29.468 -13.234 29.47 -12.062 L 29.494 -0.357 C 26.88 -0.589 25.297 -0.019 24.595 0.69" transform="matrix(1 0 0 1 1090.5625 163.0608)" fill="#1d1d1b"/>
  <path d="M 0 0 C -2.46 -3.617 -7.958 -5.346 -12.297 -4.937 L -12.31 18.183 C -7.267 18.683 -2.508 16.862 0.135 13.1 C 2.695 9.458 2.741 4.031 0 0 M -27.995 -1.43 C -31.333 1.623 -32.531 6.626 -30.587 11.076 C -28.265 16.387 -22.227 18.673 -16.872 18.383 L -16.707 -5.201 C -21.143 -5.269 -25.275 -3.919 -27.995 -1.43 M 4.631 15.172 C 1.789 20.268 -5.345 22.4 -11.455 23.14 C -12.115 25.101 -13.115 26.604 -14.838 26.686 C -16.66 26.773 -16.649 23.982 -17.426 23.462 C -29.041 21.779 -37.48 15.676 -36.286 4.746 C -35.615 -1.396 -31.617 -6.755 -25.045 -8.388 L -17.352 -10.3 C -16.478 -12.229 -15.928 -13.609 -13.705 -13.371 C -12.756 -13.27 -12.023 -11.277 -11.496 -10.024 C -6.649 -8.671 -0.448 -7.907 3.394 -3.382 C 8.122 2.187 7.875 9.353 4.631 15.172" transform="matrix(1 0 0 1 317.0645 170.1671)" fill="#1d1d1b"/>
  <path d="M 0 0 C -3.858 -0.609 -7.525 -0.693 -11.884 -0.278 L -11.842 15.165 C -1.526 16.121 6.519 15.602 6.76 7.855 C 6.885 3.836 4.422 0.698 0 0 M 3.263 18.883 C -1.57 20.234 -6.509 19.493 -11.902 19.641 L -11.919 31.889 L -17.129 31.825 L -16.971 -4.55 L -0.052 -4.403 C 6.134 -4.35 10.393 0.513 11.136 5.666 C 11.999 11.648 9.425 17.161 3.263 18.883" transform="matrix(1 0 0 1 1144.0051 163.1643)" fill="#1d1d1b"/>
  <path d="M 0 0 C -4.488 -1.163 -8.937 -0.756 -14.035 -0.607 C -14.685 3.935 -14.655 8.083 -14.032 12.668 L -2.028 12.705 C 1.972 12.717 4.738 10.43 5.222 7.58 C 5.78 4.289 3.7 0.959 0 0 M 3.882 15.883 C -1.763 17.871 -7.757 16.922 -13.753 17.172 C -14.125 20.671 -14.024 23.937 -13.642 27.65 L 7.323 27.608 L 7.317 31.808 L -19.293 31.778 L -19.152 -4.703 L -1.062 -4.591 C 4.481 -4.556 8.477 -1.016 9.532 3.548 C 10.666 8.456 9.152 14.026 3.882 15.883" transform="matrix(1 0 0 1 893.2287 163.3299)" fill="#1d1d1b"/>
  <path d="M 0 0 L -11.014 -0.117 L -11.024 16.377 L -0.338 16.351 C 5.172 16.338 8.103 12.314 8.063 8.072 C 8.02 3.626 5.013 0.053 0 0 M 12.905 9.143 C 12.535 15.638 7.443 20.688 0.099 20.749 L -15.692 20.881 L -15.81 -15.001 C -14.763 -15.841 -11.694 -15.576 -11.315 -14.787 L -10.902 -4.788 L 1.368 -4.344 C 9.318 -4.055 13.297 2.259 12.905 9.143" transform="matrix(1 0 0 1 391.3077 174.2109)" fill="#1d1d1b"/>
  <path d="M 0 0 C -7.903 0 -14.309 6.406 -14.309 14.309 C -14.309 22.212 -7.903 28.618 0 28.618 C 7.903 28.618 14.309 22.212 14.309 14.309 C 14.309 6.406 7.903 0 0 0 M -0.071 33.306 C -10.592 33.306 -19.121 24.776 -19.121 14.255 C -19.121 3.734 -10.592 -4.796 -0.071 -4.796 C 10.451 -4.796 18.98 3.734 18.98 14.255 C 18.98 24.776 10.451 33.306 -0.071 33.306" transform="matrix(1 0 0 1 636.8216 162.5361)" fill="#1d1d1b"/>
  <path d="M 0 0 C -0.167 -4.042 -3.458 -7.03 -8.153 -7.047 L -18.109 -7.083 L -18.1 8.332 L -6.473 8.225 C -1.508 8.179 0.155 3.746 0 0 M -1.705 11.391 C -6.948 13.391 -12.471 12.352 -18.09 12.73 L -18.166 25.124 C -19.881 25.317 -20.967 25.351 -22.84 25.048 L -22.757 -11.378 L -7.403 -11.296 C -1.265 -11.263 3.686 -7.203 4.518 -2.197 C 5.483 3.611 3.978 9.222 -1.705 11.391" transform="matrix(1 0 0 1 1373.012 169.9329)" fill="#1d1d1b"/>
  <path d="M 0 0 C -7.948 0 -14.391 6.443 -14.391 14.391 C -14.391 22.338 -7.948 28.781 0 28.781 C 7.948 28.781 14.391 22.338 14.391 14.391 C 14.391 6.443 7.948 0 0 0 M 19.262 16.299 C 18.325 25.764 10.682 33.073 -0.146 33.037 C -12.434 32.997 -20.235 22.897 -19.201 12.363 C -18.11 1.243 -7.728 -6.1 3.588 -4.03 C 13.63 -2.193 20.21 6.727 19.262 16.299" transform="matrix(1 0 0 1 348.4091 162.4628)" fill="#1d1d1b"/>
  <path d="M 0 0 L 7.774 16.706 L 15.467 -0.233 Z M 25.913 -12.317 L 11.666 19.739 C 10.838 21.602 10.195 22.694 8.487 22.848 C 6.757 23.004 5.418 22.39 4.582 20.53 L -10.52 -13.03 C -8.981 -14.121 -6.203 -13.966 -5.822 -13.217 L -1.5 -4.721 L 16.706 -4.786 C 19.983 -7.332 19.162 -12.297 23.137 -13.762 C 24.283 -14.184 26.327 -13.25 25.913 -12.317" transform="matrix(1 0 0 1 551.0577 172.4218)" fill="#1d1d1b"/>
  <path d="M 0 0 L 7.891 17.334 L 15.533 0.094 Z M 10.548 22.327 C 9.975 23.597 5.788 23.533 5.224 22.295 L -10.77 -12.827 C -3.369 -16.159 -3.968 -4.533 -0.911 -4.495 L 17.603 -4.265 C 19.087 -7.128 19.425 -10.333 21.916 -12.901 C 22.958 -13.976 25.317 -13.846 26.49 -12.968 Z" transform="matrix(1 0 0 1 1001.9097 172.1104)" fill="#1d1d1b"/>
  <path d="M 0 0 L -13.873 -0.291 L -13.85 12.714 L -1.02 12.737 C 3.388 12.745 5.754 9.939 5.823 6.61 C 5.887 3.518 3.641 0.076 0 0 M 2.251 16.655 L -13.788 17.191 L -13.707 27.479 L 8.358 27.423 C 8.653 29.098 8.647 30.222 8.321 31.857 L -18.491 31.854 L -18.537 -4.326 L 0.675 -4.336 C 6.438 -4.339 9.997 0.659 10.421 5.641 C 10.858 10.786 8.088 16.46 2.251 16.655" transform="matrix(1 0 0 1 602.2082 163.278)" fill="#1d1d1b"/>
  <path d="M 0 0 C -7.955 0 -14.405 6.449 -14.405 14.405 C -14.405 22.36 -7.955 28.809 0 28.809 C 7.955 28.809 14.405 22.36 14.405 14.405 C 14.405 6.449 7.955 0 0 0 M 0.264 33.069 C -11.938 33.166 -19.856 23.919 -19.239 13.092 C -18.633 2.45 -9.43 -5.38 1.888 -4.319 C 12.644 -3.31 19.446 5.246 19.156 15.317 C 18.873 25.156 11.548 32.979 0.264 33.069" transform="matrix(1 0 0 1 207.4938 162.517)" fill="#1d1d1b"/>
  <path d="M 0 0 L 7.587 17.787 L 15.224 0.188 Z M 9.934 22.993 C 9.262 24.443 5.583 23.433 4.891 21.921 L -10.864 -12.488 C -9.475 -13.568 -6.586 -13.68 -5.912 -12.315 L -1.821 -4.036 L 17.096 -4.034 L 21.541 -12.491 C 22.203 -13.751 24.986 -13.537 26.375 -12.496 Z" transform="matrix(1 0 0 1 699.2444 171.9075)" fill="#1d1d1b"/>
  <path d="M 0 0 C -7.939 0 -14.375 6.436 -14.375 14.375 C -14.375 22.314 -7.939 28.749 0 28.749 C 7.939 28.749 14.375 22.314 14.375 14.375 C 14.375 6.436 7.939 0 0 0 M -0.023 33.393 C -10.535 33.393 -19.058 24.871 -19.058 14.358 C -19.058 3.846 -10.535 -4.677 -0.023 -4.677 C 10.49 -4.677 19.012 3.846 19.012 14.358 C 19.012 24.871 10.49 33.393 -0.023 33.393" transform="matrix(1 0 0 1 762.4815 162.4461)" fill="#1d1d1b"/>
  </g>
</svg>
