<svg xmlns="http://www.w3.org/2000/svg" viewBox="0 0 360 220" role="img" aria-labelledby="title desc">
  <title id="title">Обхват по груди</title>
  <desc id="desc">Лента проходит по самым выступающим точкам груди.</desc>
  <defs>
    <pattern id="ticks" width="14" height="15" patternUnits="userSpaceOnUse">
      <path d="M2 2v11M7 2v7M12 2v10" stroke="#503508" stroke-width="1.5" stroke-linecap="round"/>
    </pattern>
  </defs>
  <rect width="360" height="220" fill="#fffaf7"/>
  <g fill="none" stroke="#2f2f2f" stroke-width="2.3" stroke-linecap="round" stroke-linejoin="round">
    <path d="M155 16c-3 19-12 32-28 43"/>
    <path d="M205 16c3 19 12 32 28 43"/>
    <path d="M146 58c15 10 53 10 68 0"/>
    <path d="M127 59c-28 17-48 38-57 66-8 25-9 57-17 89"/>
    <path d="M233 59c28 17 48 38 57 66 8 25 9 57 17 89"/>
  </g>
  <g stroke="#2f2f2f" stroke-width="2.3" stroke-linejoin="round">
    <path d="M121 83c-20 17-33 41-37 68 23 13 55 15 83 1-5-34-18-58-46-69Z" fill="#d8e9df"/>
    <path d="M239 83c20 17 33 41 37 68-23 13-55 15-83 1 5-34 18-58 46-69Z" fill="#d8e9df"/>
    <path d="M84 151c49 22 143 22 192 0v20c-50 21-142 21-192 0Z" fill="#c5d8cc"/>
  </g>
  <g fill="none" stroke="#2f2f2f" stroke-width="2.3" stroke-linecap="round">
    <path d="M121 83c-11 35-24 51-37 68"/>
    <path d="M239 83c11 35 24 51 37 68"/>
    <path d="M127 59c-20 25-31 56-43 92"/>
    <path d="M233 59c20 25 31 56 43 92"/>
    <path d="M169 152l-48-69"/>
    <path d="M191 152l48-69"/>
  </g>
  <path d="M70 128c73-2 147-2 220 0" stroke="#7a5207" stroke-width="23" stroke-linecap="round" opacity=".16"/>
  <rect x="66" y="117" width="228" height="18" rx="3" fill="#f0c43d" stroke="#503508" stroke-width="2"/>
  <rect x="70" y="119" width="220" height="14" fill="url(#ticks)"/>
  <path d="M66 126c-17 0-32 1-46 4M294 126c17 0 32 1 46 4" fill="none" stroke="#f0c43d" stroke-width="15" stroke-linecap="round"/>
  <path d="M66 126c-17 0-32 1-46 4M294 126c17 0 32 1 46 4" fill="none" stroke="#503508" stroke-width="2" stroke-linecap="round"/>
</svg>
